<svg id="Lag_1" data-name="Lag 1" xmlns="http://www.w3.org/2000/svg" viewBox="0 0 105.21259 105.21259"><defs><style>.cls-1{fill:#fff;}.cls-2{fill:#123274;}.cls-3{fill:#31b7bc;}</style></defs><title>HI logo farger norsk</title><circle class="cls-1" cx="52.6063" cy="52.60629" r="49.6063"/><path class="cls-2" d="M52.78539,3.08107A49.60629,49.60629,0,1,1,3.17909,52.68736,49.60629,49.60629,0,0,1,52.78539,3.08107m0-3a52.60629,52.60629,0,1,0,52.6063,52.60629A52.66587,52.66587,0,0,0,52.78539.08107Z" transform="translate(-0.17909 -0.08107)"/><circle class="cls-2" cx="52.60607" cy="52.60645" r="47.23846"/><path class="cls-1" d="M16.317,35.0486l.48925-.91016,3.10645,1.67383.72265-1.3418-3.10644-1.67285.48975-.90918,7.05761,3.80176-.48877.90918-3.10693-1.67383-.72217,1.3418,3.106,1.67285-.48975.9082Z" transform="translate(-0.17909 -0.08107)"/><path class="cls-1" d="M21.16616,27.33571l.67871-.8252,7.1831,3.96387-.6333.76953-1.55517-.90625-.94532,1.15039L27.068,32.85719l-.63281.76953Zm4.81738,2.53222-2.95361-1.70019-.01563.01953,2.23731,2.56933Z" transform="translate(-0.17909 -0.08107)"/><path class="cls-1" d="M25.02846,23.1775l.81983-.70312,4.06933,3.62109.01807-.01562-2.94971-4.582.81934-.70214,4.168,7.125-.53711.46093Z" transform="translate(-0.17909 -0.08107)"/><path class="cls-1" d="M31.07,18.49879l2.16015-1.248.48047.83106-1.26709.73242,1.19385,2.06738,1.18359-.68457.48047.83106-1.18457.68359,1.85352,3.21-.89258.5166Z" transform="translate(-0.17909 -0.08107)"/><path class="cls-1" d="M38.9684,14.51832c1.3418-.48828,2.67578,1.06836,3.42725,3.13086.96142,2.6377.4292,4.22363-.60791,4.60254-1.13867.41406-2.51514-.62988-3.42676-3.13086C37.69057,17.282,37.49233,15.05739,38.9684,14.51832Zm2.50147,6.82715c.62011-.22656.58935-1.4668-.08838-3.32617-.69043-1.89453-1.45313-2.83008-2.09473-2.59473-.78955.28809-.40429,1.97364.08789,3.32617C40.06606,20.6443,40.81655,21.58375,41.46987,21.34547Z" transform="translate(-0.17909 -0.08107)"/><path class="cls-1" d="M45.27993,12.85914l.85546-.12988a1.99733,1.99733,0,0,1,2.42237,1.87891,1.94261,1.94261,0,0,1-.562,1.82129,4.39156,4.39156,0,0,1,1.44677,2.248l.61475,1.57031-1.06885.16114-.51562-1.31739c-.59229-1.501-.93457-2.15527-1.50733-2.00683l.53907,3.5498-1.02149.15528Zm1.58935,3.26758c.55811-.084.79151-.54492.67236-1.3291-.13134-.86621-.47753-1.22559-1.09619-1.14356l.376,2.48047Z" transform="translate(-0.17909 -0.08107)"/><path class="cls-1" d="M52.24575,18.907a1.36452,1.36452,0,0,0,.89062.4629.78.78,0,0,0,.79736-.76368c.02588-1.23632-1.66455-3.07324-1.62939-4.71777a1.66813,1.66813,0,0,1,1.67188-1.80078,1.89,1.89,0,0,1,.85937.2334l-.02051.97168a1.33221,1.33221,0,0,0-.71484-.2666.68874.68874,0,0,0-.79639.751c-.02783,1.27246,1.66455,3.03809,1.62891,4.71875a1.67846,1.67846,0,0,1-1.69629,1.81348,1.8498,1.8498,0,0,1-1.01318-.333Z" transform="translate(-0.17909 -0.08107)"/><path class="cls-1" d="M59.14418,12.65114l1.01368.19531-1.51661,7.876-1.01367-.19628Zm.30176,4.08007,1.85645-3.66406,1.03711.2002-1.96094,3.50976.75,4.42383-1.04981-.20313Z" transform="translate(-0.17909 -0.08107)"/><path class="cls-1" d="M66.36586,14.47047l.77832.31445L66.943,20.031l.02149.00879,1.84863-4.583.87891.35449L66.69594,23.241l-.77832-.3125.21875-5.292-.02148-.00879-1.86621,4.627-.87891-.35351Z" transform="translate(-0.17909 -0.08107)"/><path class="cls-1" d="M73.611,17.89723l.87988.53808-4.18457,6.83594-.87988-.53808Z" transform="translate(-0.17909 -0.08107)"/><path class="cls-1" d="M78.12661,20.96852l.63378.55273-1.90722,4.89453.01855.01563,3.24707-3.72754.71387.62109L75.569,29.37086l-.63379-.55078,1.93945-4.93164-.01855-.0166-3.27832,3.76562-.71485-.62207Z" transform="translate(-0.17909 -0.08107)"/><path class="cls-1" d="M80.22036,34.36793A2.48574,2.48574,0,0,1,78.9811,33.53c-.9668-1.27051-.43164-2.98926,1.66992-4.58691,2.00781-1.52539,3.876-1.72461,4.81348-.49121a2.63358,2.63358,0,0,1,.4707,1.57129l-.87891.66894a2.21277,2.21277,0,0,0-.27929-1.65723c-.64649-.85058-1.81836-.54785-3.501.73047-1.60547,1.22071-2.21289,2.28516-1.5166,3.20313a2.10564,2.10564,0,0,0,.24707.26367l1.959-1.48828-.42871-.56445.76465-.58008,1.05371,1.38476Z" transform="translate(-0.17909 -0.08107)"/><path class="cls-1" d="M82.401,36.27321a1.36815,1.36815,0,0,0,.01172,1.00488.77941.77941,0,0,0,1.0498.3418c1.10157-.56153,1.92383-2.91895,3.39063-3.66407a1.66986,1.66986,0,0,1,2.37793.623,1.91949,1.91949,0,0,1,.19922.86914l-.86719.43945a1.33887,1.33887,0,0,0-.10156-.75488A.69012.69012,0,0,0,87.4225,34.784c-1.13476.57715-1.89257,2.90234-3.3916,3.66406a1.67571,1.67571,0,0,1-2.39843-.63965,1.83187,1.83187,0,0,1-.18458-1.05078Z" transform="translate(-0.17909 -0.08107)"/><path class="cls-1" d="M27.75844,73.58473l.67481.78418-6.05469,5.2373-.67481-.78418Z" transform="translate(-0.17909 -0.08107)"/><path class="cls-1" d="M30.6227,76.68043l.64746.53613L29.50161,82.1609l.01757.01465L32.65786,78.367l.72949.60644-5.08692,6.17481L27.654,84.6111l1.79785-4.98047-.01758-.01465-3.168,3.84473-.73046-.60547Z" transform="translate(-0.17909 -0.08107)"/><path class="cls-1" d="M32.46059,86.42067a1.3773,1.3773,0,0,0,.57031.82812A.7761.7761,0,0,0,34.09047,86.95c.59766-1.0791-.03613-3.49609.76075-4.93066a1.65819,1.65819,0,0,1,2.31445-.80274,1.92291,1.92291,0,0,1,.64844.61036l-.47168.84863a1.34049,1.34049,0,0,0-.50489-.57227.68543.68543,0,0,0-1.05273.28809c-.61719,1.11035.05273,3.46484-.76367,4.93066a1.66594,1.66594,0,0,1-2.33985.80274,1.86288,1.86288,0,0,1-.73828-.77149Z" transform="translate(-0.17909 -0.08107)"/><path class="cls-1" d="M40.94106,84.13649l-1.16113-.42285.32324-.90235,3.292,1.19727-.32324.90332L41.90981,84.489l-2.37988,6.63964-.96973-.35253Z" transform="translate(-0.17909 -0.08107)"/><path class="cls-1" d="M45.96547,84.64332l1.01172.209L45.3893,92.71559l-1.01074-.208Z" transform="translate(-0.17909 -0.08107)"/><path class="cls-1" d="M50.75551,86.30446l-1.2334-.06543L49.57,85.28l3.49609.18457-.04883.96-1.23144-.06543-.34668,7.05664-1.0293-.05468Z" transform="translate(-0.17909 -0.08107)"/><path class="cls-1" d="M56.57485,85.2361l.81738,5.97754c.09277.67773.40332,1.09667.90234,1.03027.39161-.05176.70411-.4209.59961-1.1836l-.82324-6.02539,1.02051-.13671.80664,5.90625a1.81274,1.81274,0,1,1-3.52441.55761l-.81934-5.99023Z" transform="translate(-0.17909 -0.08107)"/><path class="cls-1" d="M63.0143,84.864l-1.1709.38476-.30176-.91308,3.32129-1.09082.30176.91308-1.17187.38477,2.21582,6.71386-.97852.32129Z" transform="translate(-0.17909 -0.08107)"/><path class="cls-1" d="M68.26821,82.7234l-1.09082.57617-.44922-.85058L69.82,80.81617l.44921.85059-1.09082.57617,3.30176,6.25391-.91015.48144Z" transform="translate(-0.17909 -0.08107)"/><path class="cls-1" d="M71.97817,79.39137l2.24316-1.75684.5918.75782-1.43262,1.12207L74.86,81.40992l1.31055-1.02539.58984.75782-1.30957,1.02636,1.68555,2.16114,1.50879-1.18067.59082.75781-2.31836,1.81543Z" transform="translate(-0.17909 -0.08107)"/><path class="cls-1" d="M77.7477,75.533l-.81934.92285-.71679-.64062,2.32324-2.61426.71582.63965-.81934.92285,5.26758,4.708-.68359.76953Z" transform="translate(-0.17909 -0.08107)"/><path class="cls-3" d="M22.95385,73.969a.64783.64783,0,0,1-.53467-.28027,36.985,36.985,0,0,1-4.15966-34.104.64985.64985,0,0,1,1.21484.46192,35.686,35.686,0,0,0,4.01318,32.90185.65057.65057,0,0,1-.53369,1.02051Z" transform="translate(-0.17909 -0.08107)"/><path class="cls-3" d="M82.51586,73.969a.65057.65057,0,0,1-.5332-1.02051,35.68851,35.68851,0,0,0,4.0127-32.90234.64967.64967,0,1,1,1.21484-.46094A36.97743,36.97743,0,0,1,83.051,73.68875.64869.64869,0,0,1,82.51586,73.969Z" transform="translate(-0.17909 -0.08107)"/><path class="cls-1" d="M26.89649,68.36366H78.57423L64.53266,44.847a19.85017,19.85017,0,0,0,2.13886-.43567c.15326-.03906.30621-.07507.4599-.118.19024-.05353.38135-.11426.57232-.17371.24653-.07611.49335-.15521.74073-.241.144-.05024.28839-.10285.4328-.15644q.46289-.17074.9273-.36444c.10193-.04254.2038-.084.306-.12823q.55125-.23786,1.10419-.50739c.05927-.02881.11817-.05511.17749-.08447.42169-.209.84381-.42883,1.26654-.665.01874-.01044.03729-.019.05609-.02942l.8291-.4624-.00274-.00153.00079-.00042-.8291-.45752c-.53387-.29492-1.06366-.56342-1.59106-.817-.09107-.04358-.1814-.08234-.27228-.12469q-.68463-.32062-1.36188-.59479c-.068-.02735-.1358-.05353-.20374-.0802q-.76408-.30166-1.51867-.54425l-.00018-.00006a18.86441,18.86441,0,0,0-7.36194-.92951l-7.6673-12.84112L39.56379,47.14931c-.06457.00964-.12732.02942-.19177.03985q-.67245.11059-1.33551.27741c-.20117.04992-.40131.10522-.60108.16284-.39038.11371-.77887.23828-1.16394.38129-.24481.09033-.48755.19189-.73022.29419-.2428.10272-.484.21392-.72455.32843q-.54465.25872-1.08179.55725c-.21136.11792-.42144.24206-.631.36932-.17621.10718-.35589.19666-.53082.31061A25.54783,25.54783,0,0,1,29.00587,46.893l-.89942-.89307.00007.04053-.00739-.00732-.01562,1.24462c-.01319,1.042-.01319,4.937,0,6.61524l.00976,1.29834.01367-.01428v.005l.90772-.9458a24.12247,24.12247,0,0,1,3.54333-3.067A19.74884,19.74884,0,0,0,36.08637,52.973Zm2.71839-1.8128h46.24l.24274.40655H29.37208Zm.46283-.77509.27075-.45343H75.12141l.27069.45343Zm9.18805-8.461H35.13008l.35351-.5921h3.78912l-.00463.36951C39.26728,57.15572,39.26649,57.23061,39.26576,57.31477Zm-.00379.63642c-.00079.17517-.00128.36963-.00183.57232H34.40827l.34174-.57232Zm5.45288,2.38025c5.41455-3.335,11.46289-3.31446,18.05664.07226C56.3086,63.70839,50.26026,63.67909,44.71485,60.33144Zm-1.87036,1.30535h2.00318c.32995.18384.66229.351.99554.51282h-3.6217C42.4286,61.9756,42.63539,61.80025,42.84449,61.63679Zm1.01972-2.0227h-.25037c-.20172-.13971-.40253-.28558-.603-.43433H44.578C44.33918,59.31984,44.10072,59.46175,43.86421,59.61409Zm-1.0644.72711a24.76087,24.76087,0,0,0-2.48437,2.09473c-.00391-1.29785-.0044-2.94531-.001-4.11328A26.303,26.303,0,0,0,42.79981,60.3412Zm-1.39074,2.52411h6.1062c.51874.19189,1.042.35291,1.56824.493H40.88429C41.0583,63.1891,41.23359,63.02669,41.40907,62.86531Zm4.38385-4.3418H42.16841c-.22663-.18432-.45209-.37622-.67688-.57232h5.58184C46.643,58.12245,46.2165,58.315,45.79292,58.52351Zm-6.53412.65625c-.00025.17951-.00037.36457-.00043.55243H33.68653l.3299-.55243Zm-.00049,1.22852q.00009.26642.00031.53265H32.96473l.31806-.53265Zm.00128,1.22851q.00055.262.00122.51282H32.243l.30621-.51282Zm.00366,1.22852c.00074.17328.00153.34039.00245.493H31.52119l.29443-.493Zm.00776,1.22852.00354.4732h-8.4751l.28259-.4732Zm.42755.4732.45233-.4732h34.237l.28253.4732Zm18.25329-1.20868q.85017-.21122,1.71027-.49933v.00629H73.65431l.29443.493Zm3.5777-1.20874q.55911-.24,1.12231-.51282H72.92079l.30621.51282Zm2.47083-1.20868c.04888-.02673.09716-.04919.14611-.07629l.82282-.45636h7.218l.318.53265ZM63.744,59.73219c-.3559-.19085-.71161-.38-1.06458-.55243h8.77435l.32984.55243ZM61.2331,58.52351c-.50061-.21087-.99768-.39953-1.492-.57232H70.72016l.34174.57232Zm-3.64435-1.20874a17.31173,17.31173,0,0,0-8.561,0H40.78565c-.207-.19366-.41424-.386-.61962-.58978l-.00232-.00232H69.98664l.35358.5921ZM39.54267,56.10609l-.259-.25708-.00323.25708H35.85182l.36541-.61193H69.25312l.36536.61193Zm-2.96911-1.20868.37726-.63177H68.5196l.3772.63177Zm1.44665-2.42272,2.60407-4.36091a19.99113,19.99113,0,0,1,10.96216,2.47254C46.82759,53.02742,42.29359,53.65071,38.02021,52.47469Zm8.07935,1.214a21.39489,21.39489,0,0,0,2.38525-.65155H67.78608l.389.65155ZM49.95033,52.48c.50122-.20612,1.004-.426,1.51013-.67139h15.5921l.40088.67139Zm2.56781-1.20875c.14843-.07946.29492-.14263.44378-.22546l.83155-.46191-.00684-.00379H66.319l.41266.69116Zm.3244-1.20867c-.45978-.25153-.9176-.49042-1.37244-.71106H65.58546l.42456.71106ZM50.366,48.85384c-.62207-.26984-1.24079-.5196-1.85328-.73084H64.85194l.43634.73084Zm-.908-4.41639h8.14251a16.87244,16.87244,0,0,0,5.3844.5586l.13831.23169H48.66828l.07441-.07746C48.97932,44.90376,49.21839,44.66933,49.458,44.43745Zm3.4967-4.04461H51.75611c-.37768-.27509-.75335-.56256-1.126-.86951H54.5525C54.0138,39.78029,53.48225,40.07613,52.95466,40.39284Zm-.59216.359c-.01947.01263-.03931.023-.05878.03564-.0166-.01135-.0329-.02423-.04944-.03564Zm-.98944.67871a24.74655,24.74655,0,0,0-2.48389,2.085V39.412A26.35164,26.35164,0,0,0,51.37306,41.43056Zm.937.63427c.41766.26758.8385.514,1.26159.74543H51.31111C51.64179,42.54951,51.97444,42.29915,52.31007,42.06483Zm.98-.64257A16.43383,16.43383,0,0,1,59.42854,39.131c.33648.55182.74334,1.197,1.17474,1.87634l1.75379,2.93725A16.62408,16.62408,0,0,1,53.29005,41.42226Zm2.04016-2.2381H50.23036q-.4953-.42518-.98462-.88935h8.80914A16.8704,16.8704,0,0,0,55.33021,39.18416Zm-4.50385,4.02472h3.52649a18.55065,18.55065,0,0,0,1.91205.81012H49.90345Q50.3614,43.59612,50.82636,43.20888Zm-1.91571-5.2334c-.05871-.05737-.11816-.11023-.17675-.16846l-.7464-.74072H58.25013l.54285.90918Zm5.55213-7.25226h-3.454l.61389-1.02808H53.849Zm.11969.2005.602,1.00818h-4.8974l.602-1.00818Zm.73358,1.22852.59015.9884H49.56526l.59021-.9884Zm.73352,1.22851.57831.96857H48.84352l.57836-.96857Zm.73352,1.22852.56653.94879H48.12171l.56659-.94879Zm.73352,1.22851.55469.929H47.4l.55475-.929ZM47.83418,37.0663l.001.90918h-1.157l.54291-.90918Zm.00128,1.22851-.00012.88935H45.95649l.53107-.88935Zm-.00018,1.22852-.00007.86951H45.23475l.51923-.86951Zm-.00013,1.22852-.00012.84973H44.51295l.50738-.84973ZM47.835,41.98036l-.00006.8299h-4.0437l.49554-.8299Zm-.00012,1.22852-.00012.81012H43.06947l.4837-.81012Zm-.00018,1.22857-.00007.79029H42.34767l.47192-.79029ZM47.83454,45.666l-.00006.42963.41278-.42963H63.3849l.46.77045h-22.219L42.086,45.666Zm16.28388,1.22851.44818.75068H46.95869a18.71083,18.71083,0,0,0-5.662-.65741l.05567-.09327Zm-26.67133,6.54c.355.105.71546.17286,1.07392.25415H37.29536Zm16.29395-23.92h-2.0105L52.73585,27.831Z" transform="translate(-0.17909 -0.08107)"/></svg>
