<svg version="1.1" id="c" xmlns="http://www.w3.org/2000/svg" xmlns:xlink="http://www.w3.org/1999/xlink" x="0" y="0" viewBox="0 0 698.4 171" style="enable-background:new 0 0 698.4 171" xml:space="preserve">
  <style>
    .st0{fill:#262f31}.st2{enable-background:new}.st3{fill:#272d2f}
  </style>
  <symbol id="b" viewBox="-241.3 -241.3 482.5 482.6">
    <path class="st0" d="M0 241.3C-133 241.3-241.3 133-241.3 0S-133-241.3 0-241.3 241.3-133 241.3 0h-60.9c0-99.4-80.9-180.4-180.4-180.4S-180.4-99.5-180.4 0-99.5 180.4 0 180.4v60.9z"/>
    <path style="fill:#e55440" d="M241.3 241.3H75.7V181H181V75.7h60.3z"/>
    <circle class="st0" cx="68" r="37.9"/>
  </symbol>
  <g id="a">
    <use xlink:href="#b" width="482.5" height="482.6" x="-241.3" y="-241.3" transform="matrix(.14 0 0 .14 95.088 76.309)" style="overflow:visible"/>
    <g class="st2">
      <path class="st3" d="M163.8 112.7c-2.8 0-5-.5-6.8-1.4-1.8-.9-3.1-2.1-4-3.7-.9-1.5-1.3-3.2-1.3-5 0-3.2 1.2-5.7 3.7-7.5 2.5-1.8 6-2.8 10.5-2.8h8.6v-.6c0-2.5-.7-4.5-2.1-5.7-1.4-1.3-3.2-1.9-5.4-1.9-1.9 0-3.6.5-5 1.4-1.4.9-2.3 2.3-2.6 4.2h-7c.2-2.4 1-4.4 2.4-6.1 1.4-1.7 3.1-3 5.3-3.9 2.1-.9 4.5-1.3 7-1.3 4.6 0 8.1 1.2 10.6 3.6 2.5 2.4 3.8 5.6 3.8 9.8v20.1h-6.1l-.6-5.6c-.9 1.8-2.3 3.3-4 4.5-1.9 1.3-4.2 1.9-7 1.9zm1.3-5.6c1.9 0 3.5-.4 4.8-1.3 1.3-.9 2.3-2.1 3-3.6.7-1.5 1.2-3.1 1.3-4.9h-7.8c-2.8 0-4.7.5-5.9 1.4-1.2 1-1.7 2.2-1.7 3.6 0 1.5.6 2.7 1.7 3.5 1.2.8 2.7 1.3 4.6 1.3z"/>
    </g>
    <g class="st2">
      <path class="st3" d="M189 111.9V79.3h6.3l.6 6.2c1.1-2.1 2.7-3.8 4.8-5.1 2-1.3 4.5-1.9 7.4-1.9v7.3h-1.9c-1.9 0-3.7.3-5.2 1-1.5.6-2.7 1.7-3.6 3.2-.9 1.5-1.3 3.6-1.3 6.3V112H189z"/>
    </g>
    <g class="st2">
      <path class="st3" d="M228.1 111.9c-3.2 0-5.7-.8-7.6-2.3-1.9-1.6-2.8-4.3-2.8-8.3V85.1H212v-5.9h5.6l.9-8.3h6.1v8.3h9.2v5.9h-9.2v16.1c0 1.8.4 3 1.2 3.7.8.7 2.1 1 4 1h3.8v5.9h-5.5z"/>
    </g>
    <g class="st2">
      <path class="st3" d="M252.8 112.7c-4.1 0-7.5-1-10.2-3-2.7-2-4.2-4.7-4.6-8h7c.4 1.5 1.2 2.8 2.5 3.9s3 1.6 5.2 1.6c2.1 0 3.6-.4 4.6-1.3 1-.9 1.4-1.9 1.4-3 0-1.7-.7-2.8-2-3.4-1.3-.6-3.2-1.1-5.6-1.6-1.8-.4-3.7-.9-5.5-1.6-1.8-.7-3.3-1.6-4.5-2.8-1.2-1.2-1.8-2.8-1.8-4.9 0-2.9 1.1-5.2 3.3-7.1 2.2-1.9 5.3-2.9 9.2-2.9 3.6 0 6.6.9 8.9 2.6 2.3 1.8 3.6 4.2 4 7.4H258c-.2-1.4-.9-2.5-1.9-3.3-1.1-.8-2.5-1.2-4.3-1.2-1.8 0-3.1.4-4.1 1.1-1 .7-1.4 1.7-1.4 2.8 0 1.1.7 2 2 2.7 1.3.7 3.1 1.3 5.3 1.8 2.2.5 4.2 1 6.1 1.7 1.9.6 3.4 1.6 4.5 2.8 1.1 1.2 1.7 3 1.7 5.4 0 3-1.1 5.5-3.5 7.4-2.4 1.9-5.5 2.9-9.6 2.9z"/>
    </g>
    <g class="st2">
      <path class="st3" d="M286.9 112.7c-3.2 0-5.9-.7-8.4-2.2-2.4-1.5-4.3-3.5-5.7-6.1-1.4-2.6-2-5.5-2-8.8 0-3.3.7-6.2 2-8.8 1.4-2.6 3.3-4.6 5.7-6.1s5.2-2.2 8.4-2.2c2.6 0 4.9.5 6.8 1.5 2 1 3.5 2.4 4.6 4.3V64.5h7v47.4H299l-.7-5.1c-1.1 1.5-2.5 2.9-4.3 4.1-1.8 1.2-4.2 1.8-7.1 1.8zm1.3-6c3 0 5.4-1 7.3-3.1 1.9-2.1 2.9-4.7 2.9-8s-1-6-2.9-8-4.4-3.1-7.3-3.1c-3 0-5.4 1-7.4 3.1-1.9 2-2.9 4.7-2.9 8 0 2.2.4 4.1 1.3 5.7.9 1.7 2.1 3 3.7 3.9 1.6 1 3.3 1.5 5.3 1.5z"/>
    </g>
    <g class="st2">
      <path class="st3" d="M324.3 112.7c-2.8 0-5-.5-6.8-1.4-1.8-.9-3.1-2.1-4-3.7-.9-1.5-1.3-3.2-1.3-5 0-3.2 1.2-5.7 3.7-7.5 2.5-1.8 6-2.8 10.5-2.8h8.6v-.6c0-2.5-.7-4.5-2.1-5.7-1.4-1.3-3.2-1.9-5.4-1.9-1.9 0-3.6.5-5 1.4-1.4.9-2.3 2.3-2.6 4.2h-7c.2-2.4 1-4.4 2.4-6.1 1.4-1.7 3.1-3 5.3-3.9 2.1-.9 4.5-1.3 7-1.3 4.6 0 8.1 1.2 10.6 3.6 2.5 2.4 3.8 5.6 3.8 9.8v20.1h-6.1l-.6-5.6c-.9 1.8-2.3 3.3-4 4.5-1.9 1.3-4.2 1.9-7 1.9zm1.4-5.6c1.9 0 3.5-.4 4.8-1.3 1.3-.9 2.3-2.1 3-3.6.7-1.5 1.2-3.1 1.3-4.9H327c-2.8 0-4.7.5-5.9 1.4-1.2 1-1.7 2.2-1.7 3.6 0 1.5.6 2.7 1.7 3.5 1.1.8 2.6 1.3 4.6 1.3z"/>
    </g>
    <g class="st2">
      <path class="st3" d="M362.3 111.9c-3.2 0-5.7-.8-7.6-2.3-1.9-1.6-2.8-4.3-2.8-8.3V85.1h-5.6v-5.9h5.6l.9-8.3h6.1v8.3h9.2v5.9h-9.2v16.1c0 1.8.4 3 1.2 3.7.8.7 2.1 1 4 1h3.8v5.9h-5.6z"/>
    </g>
    <g class="st2">
      <path class="st3" d="M385.1 112.7c-2.8 0-5-.5-6.8-1.4-1.8-.9-3.1-2.1-4-3.7-.9-1.5-1.3-3.2-1.3-5 0-3.2 1.2-5.7 3.7-7.5 2.5-1.8 6-2.8 10.5-2.8h8.6v-.6c0-2.5-.7-4.5-2.1-5.7-1.4-1.3-3.2-1.9-5.4-1.9-1.9 0-3.6.5-5 1.4-1.4.9-2.3 2.3-2.6 4.2h-7c.2-2.4 1-4.4 2.4-6.1 1.4-1.7 3.1-3 5.3-3.9s4.5-1.3 7-1.3c4.6 0 8.1 1.2 10.6 3.6 2.5 2.4 3.8 5.6 3.8 9.8v20.1h-6.1l-.6-5.6c-.9 1.8-2.3 3.3-4 4.5s-4.2 1.9-7 1.9zm1.4-5.6c1.9 0 3.5-.4 4.8-1.3s2.3-2.1 3-3.6c.7-1.5 1.2-3.1 1.3-4.9h-7.8c-2.8 0-4.7.5-5.9 1.4-1.2 1-1.7 2.2-1.7 3.6 0 1.5.6 2.7 1.7 3.5s2.6 1.3 4.6 1.3z"/>
    </g>
    <g class="st2">
      <path class="st3" d="M428.7 112.7c-2.5 0-4.8-.5-6.7-1.5s-3.5-2.4-4.6-4.3l-.7 5h-6.3V64.5h7v19.8c1.1-1.5 2.5-2.9 4.3-4.1s4.2-1.8 7.1-1.8c3.2 0 5.9.7 8.4 2.2 2.4 1.5 4.3 3.5 5.7 6.1 1.4 2.6 2.1 5.5 2.1 8.8 0 3.3-.7 6.2-2.1 8.8-1.4 2.6-3.3 4.6-5.7 6.1s-5.3 2.3-8.5 2.3zm-1.2-6c3 0 5.4-1 7.4-3.1s2.9-4.7 2.9-8c0-2.1-.4-4.1-1.3-5.7s-2.1-3-3.6-3.9c-1.5-.9-3.3-1.4-5.3-1.4-3 0-5.4 1-7.3 3.1-1.9 2.1-2.9 4.7-2.9 8s1 6 2.9 8c1.8 1.9 4.3 3 7.2 3z"/>
    </g>
    <g class="st2">
      <path class="st3" d="M462.2 112.7c-2.8 0-5-.5-6.8-1.4-1.8-.9-3.1-2.1-4-3.7-.9-1.5-1.3-3.2-1.3-5 0-3.2 1.2-5.7 3.7-7.5s6-2.8 10.5-2.8h8.6v-.6c0-2.5-.7-4.5-2.1-5.7-1.4-1.3-3.2-1.9-5.4-1.9-1.9 0-3.6.5-5 1.4-1.4.9-2.3 2.3-2.6 4.2h-7c.2-2.4 1-4.4 2.4-6.1 1.4-1.7 3.1-3 5.3-3.9s4.5-1.3 7-1.3c4.6 0 8.1 1.2 10.6 3.6 2.5 2.4 3.8 5.6 3.8 9.8v20.1h-6.1l-.6-5.6c-.9 1.8-2.3 3.3-4 4.5-1.9 1.3-4.2 1.9-7 1.9zm1.4-5.6c1.9 0 3.5-.4 4.8-1.3s2.3-2.1 3-3.6c.7-1.5 1.2-3.1 1.3-4.9h-7.8c-2.8 0-4.7.5-5.9 1.4-1.2 1-1.7 2.2-1.7 3.6 0 1.5.6 2.7 1.7 3.5 1.1.8 2.6 1.3 4.6 1.3z"/>
    </g>
    <g class="st2">
      <path class="st3" d="M487.4 111.9V79.3h6.2l.5 5.7c1-2 2.5-3.6 4.4-4.8 2-1.2 4.2-1.7 6.7-1.7 3.9 0 7.1 1.2 9.3 3.7 2.3 2.5 3.4 6.1 3.4 11V112H511V94c0-6.3-2.6-9.5-7.8-9.5-2.6 0-4.7.9-6.4 2.8-1.7 1.8-2.5 4.5-2.5 7.9V112h-6.9z"/>
    </g>
    <g class="st2">
      <path class="st3" d="M525.7 111.9V64.5h7v28.2l12.5-13.5h8.4L539.7 94l15.9 17.8h-8.8l-14.1-16.7v16.7h-7z"/>
    </g>
    <g class="st2">
      <path class="st3" d="M572.6 112.7c-3.2 0-6-.7-8.5-2.1-2.5-1.4-4.4-3.4-5.8-6-1.4-2.5-2.1-5.5-2.1-8.9 0-3.4.7-6.4 2.1-9 1.4-2.6 3.3-4.6 5.8-6.1s5.4-2.2 8.7-2.2c3.2 0 6 .7 8.4 2.1 2.4 1.4 4.2 3.3 5.5 5.7 1.3 2.4 2 5 2 7.8v1.4c0 .5-.1 1.1-.1 1.7H563c.2 3.2 1.3 5.6 3.1 7.2 1.9 1.6 4 2.5 6.5 2.5 2 0 3.6-.4 5-1.3 1.3-.9 2.3-2.1 3-3.7h7c-.9 3.1-2.6 5.6-5.2 7.7-2.7 2.2-6 3.2-9.8 3.2zm0-28.5c-2.3 0-4.4.7-6.2 2.1s-2.9 3.5-3.3 6.2h18.4c-.1-2.5-1-4.6-2.7-6.1-1.6-1.4-3.7-2.2-6.2-2.2z"/>
    </g>
    <g class="st2">
      <path class="st3" d="M594.9 111.9V79.3h6.2l.5 5.7c1-2 2.5-3.6 4.4-4.8 2-1.2 4.2-1.7 6.7-1.7 3.9 0 7.1 1.2 9.3 3.7 2.3 2.5 3.4 6.1 3.4 11V112h-6.9V94c0-6.3-2.6-9.5-7.8-9.5-2.6 0-4.7.9-6.4 2.8-1.7 1.8-2.5 4.5-2.5 7.9V112h-6.9z"/>
    </g>
  </g>
</svg>
